# xmcd
#
# Track frame offsets:
#	150
#	20038
#	38167
#	55514
#	74839
#	92312
#	109678
#	130598
#	146291
#	165223
#	183917
#	198133
#	212727
#	231689
#	247708
#	266155
#	282246
#	300567
#	316884
#	336051
#
# Disc length: 4720 seconds
#
# Revision: 0
# Processed by: cddbd v1.5.2PL0 Copyright (c) Steve Scherf et al.
# Submitted via: EasyCDDAExtractor 15.3.0.1
#
DISCID=10126e14
DTITLE=Ednita Nazario - Lo Mejor De... Ednita Nazario
DYEAR=2014
DGENRE=Latin
TTITLE0=Quiero Que Me Hagas El Amor
TTITLE1=Por Ti Me Casare
TTITLE2=Un Corazon Hecho Pedazos
TTITLE3=Tanto Nos Amamos
TTITLE4=Eres Libre
TTITLE5=Quien Te Robo El Corazon
TTITLE6=Lo Que Son Las Cosas
TTITLE7=La Prohibida
TTITLE8=A Que No Le Cuentas
TTITLE9=Te Sigo Esperando
TTITLE10=Mirame
TTITLE11=Viene Y Va
TTITLE12=Como Antes
TTITLE13=No Voy A Llorar
TTITLE14=Dime Tu
TTITLE15=Perdiendo Tu Amor
TTITLE16=Que No Acabe El Amor
TTITLE17=Corazon
TTITLE18=El Dolor De Tu Presencia
TTITLE19=Espiritu Libre
EXTD=
EXTT0=
EXTT1=
EXTT2=
EXTT3=
EXTT4=
EXTT5=
EXTT6=
EXTT7=
EXTT8=
EXTT9=
EXTT10=
EXTT11=
EXTT12=
EXTT13=
EXTT14=
EXTT15=
EXTT16=
EXTT17=
EXTT18=
EXTT19=
PLAYORDER=
